<svg xmlns="http://www.w3.org/2000/svg" version="1.0" viewBox="0 0 677 392"><path d="M589.5 21.2c-6.5 3.7-14 16.6-19 32.8-1.5 4.7-3 9.2-3.4 10-.5.8-2.5 8.5-4.6 17-3.7 15-5.3 19.1-13.2 32.5-1.6 2.8-4 7.2-5.4 10-1.3 2.7-2.7 5.2-3 5.5-.4.3-1.7 2.7-3 5.5-1.3 2.7-4.6 8.8-7.3 13.5s-5.4 9.4-6 10.5c-5 8.9-34.1 52.1-39.1 57.9-.5.6-2.1 2.7-3.5 4.6-4 5.8-7.9 10-19.5 21.3-12.8 12.5-15.3 14.7-16.4 14.7s-13.5 6.1-14.1 6.9c-1 1.4-12.6 2.8-19.2 2.3-4.2-.3-9.4.2-14 1.2-6.7 1.5-8.8 1.5-22.8.2-17.7-1.8-22-2.5-22-3.8 0-.5-2.4-.8-5.2-.7-3.2.1-6.5-.4-8.3-1.3-3.2-1.7-4.2-1.6-16 1.3-5.7 1.5-13.7 1.6-21.1.5-4.5-.8-5.5-.6-9.5 1.9-2.4 1.5-7.9 6.1-12.1 10.3-4.3 4.2-7.9 7.4-8.2 7.1-.2-.2.2-2.9 1-5.9s1.4-6.1 1.4-7c0-3.4-6.2-14.4-11-19.4l-5.1-5.4 7-13.4c3.8-7.3 9.2-18.3 11.9-24.3 2.7-6.1 6.3-13.9 7.9-17.5 3.1-6.6 11.6-28 17-42.5l2.9-8 19-9.5c18.3-9.2 27.4-13.6 41.7-19.9 3.7-1.7 8.7-4.3 11-5.9s5.9-3.2 7.9-3.6c4.3-.8 8.4-3.8 7.4-5.4-.8-1.4-6.5-1.5-12.1-.2-2.2.5-8 1.8-13 2.9-8.4 1.8-18.1 4.4-28.5 7.5-2.5.8-7.8 2.4-11.9 3.5-4.1 1.2-8.3 2.6-9.3 3.2-1.8 1-1.9.8-1.2-2.8.4-2.1.7-4.3.7-4.8 0-1.8-6.4-10.5-9-12.2-4.4-2.9-16.5-6.3-22.4-6.3-7.8 0-21.7 5.3-25.9 10-.3.3-2.4 2-4.7 3.8l-4.2 3.2-1.2-4.2C248.6 90 246.7 86 245 86c-1 0-7.6 10.8-8.5 14-.4 1.4-1.1 2.9-1.4 3.5-.4.5-2.1 5.5-3.9 11-8.5 27.5-7.2 24.7-12.2 26.6-2.5.9-9.2 3-15 4.7-15.9 4.5-25.5 7.6-36 11.7-8.9 3.4-15.6 5.8-27.5 9.9-6.9 2.4-25.1 9.4-30 11.6-2.2.9-10.7 4.3-18.9 7.5-8.2 3.1-15.7 6.1-16.5 6.6-2.3 1.2-12 5.4-16.1 6.9-1.9.7-8.9 3.9-15.5 7-6.6 3.2-13.7 6.3-15.7 7-2.1.6-3.8 1.6-3.8 2.1s-1.1.9-2.4.9c-1.4 0-2.7.4-3 .9-.4.5-3.1 1.7-6.1 2.6-6.2 2-8.2 3.7-6.3 5.2.9.8 3 .3 6.9-1.6 3.1-1.4 7.6-3.4 10-4.5 7-3 13-5.6 18.9-8.3 3-1.4 7.8-3.3 10.5-4.3 2.8-1 9.1-3.6 14-5.8 5-2.2 11.9-5 15.5-6.2s8.5-3.1 10.8-4.1c2.4-1.1 6.9-2.9 10-4.1 3.2-1.1 6.1-2.4 6.7-2.9.5-.5 1.5-.9 2.2-.9s3.7-1.1 6.7-2.5 6-2.5 6.7-2.5 4.6-1.3 8.8-2.9c15.1-5.9 30.1-11.1 32-11.1 1.6 0 1.9 1 2.3 6.7.3 4.1 1.3 8.5 2.6 10.9 2.4 4.7 2.2 4.5 11.2 13.7l6.5 6.7-3 2.5c-1.7 1.3-3.5 2.4-4.2 2.5-.6 0-1.3.3-1.5.8-.2.4-2.8 2.3-5.8 4.2s-5.7 3.7-6 4-2.1 1.7-4 3-4 2.9-4.6 3.5c-.6.5-2.9 2.3-5 4-10.4 8-34.4 34.1-34.4 37.4 0 .5-.4 1.1-.8 1.3-1.3.5-8.6 12-10.1 15.8-.7 1.9-1.7 5.1-2.1 7-.5 1.9-1.4 5.3-2 7.5-2.8 9.2 1 20.1 9.3 26.8 8.8 7.2 18.1 10.2 34.7 11.3 25.7 1.6 55.3-4.7 78.9-16.8 5.1-2.6 9.5-4.8 9.7-4.8.7 0 8.4 15.9 8.4 17.4 0 .7.7 1.9 1.5 2.6s1.5 2 1.5 2.9.7 2.8 1.4 4.3c.8 1.5 1.2 3 .8 3.2-1.6.9-32.5 9.9-41.7 12.1-5.5 1.3-12.5 3.1-15.5 3.9-11.7 3-24.8 6.6-32 8.6-9.2 2.6-12.9 3.5-20.2 5-5.7 1.1-8.5 3-7.3 5 1.6 2.6 13.1.5 42.5-8 3.6-1 11-2.8 16.5-4s11.1-2.6 12.5-3.1c2.3-.8 23.2-4.6 38.5-7 6.3-1 44.1-6.1 58.5-7.9 45-5.6 137.9-8.2 186-5.1 36.3 2.3 68.8 5.6 101 10.2 29 4.2 43.9 7.8 59.8 14.3 13.6 5.5 20.8 7.2 22.7 5.2 2-2 .2-3.3-9.7-6.7-4.4-1.6-8.9-3.5-9.8-4.4-.9-.8-2-1.5-2.4-1.5-.9 0-9.1-5.7-11.6-8-.9-.8-3.2-2.7-5.1-4.2-3.7-2.9-18.1-17.4-25-25.3-2.4-2.8-5.3-5.9-6.4-7-1.8-1.7-5.8-7-13.9-18-1.1-1.4-2.8-3.6-3.9-4.8-1-1.2-2.6-3.6-3.4-5.2-.9-1.7-3.2-5.5-5.2-8.5-5.8-8.7-14.5-27.5-13.6-29 1.1-1.8 8.3-4.5 25.5-9.6 12.8-3.9 24.1-8.5 22.1-9.2-1.1-.4-22.3 5.6-36.6 10.3-11 3.6-13.2 3.9-13.8 1.8-1.2-3.9-4.6-20.3-6.2-28.8-1.8-10.2-2.2-44.9-.6-54.4.5-3.1 1.5-10.6 2.1-16.6 3.2-30.6 9.4-52.1 19-65.5 1.1-1.6 2-3 2-3.2 0-.3 3.6-6.5 8-13.8 10.2-17.2 16.2-30.7 15.8-35.8-.3-3.6-.5-3.7-4.3-3.9-2.2-.2-4.9.2-6 .9m3.8 11.5c-1.3 3.7-2.8 7.2-3.2 7.8-.5.5-2.5 4.4-4.7 8.5-5.4 10.6-14.3 25-15.5 25-1.9 0 5.9-24.2 12.2-37.7 2.4-5.2 8.4-10.3 12-10.3 1.5 0 1.4.7-.8 6.7M301.5 93.2c1.8 1.8 5.3 4.4 7.8 5.7 4.1 2.1 4.6 2.6 4.3 5.5-.9 8.8-2.9 10.5-15.6 13.6-3 .8-6 1.7-6.5 2.1-.6.4-5.3 1.9-10.5 3.3-5.2 1.3-13.2 3.5-17.7 4.8-4.5 1.2-8.4 2-8.7 1.8-.3-.3-.8-5.1-1.2-10.7l-.7-10.1 5.6-5.5c9.3-9 20.1-13.4 33.6-13.6 5.8-.1 6.5.1 9.6 3.1m-54.8 8.7c.5 5-1 11.1-2.7 11.1-.4 0-1.5 1.8-2.6 4-1 2.2-2.2 4-2.6 4-.3 0-1.8 2-3.2 4.4-1.5 2.5-3 4.7-3.5 5-1.4.9 1.4-9.3 5.3-20 6.3-16.6 8.3-18.4 9.3-8.5m120.8 3.4c-5.7 2.3-16 7.2-36.4 17.4-11.2 5.7-20.6 10.1-20.9 9.9-.7-.7 3.8-13.4 5.1-14.4 3.3-2.6 45.4-13.9 52.2-14h3zm184.6 22.8c-3.6 22.3-4.5 34.1-4.5 55.9-.1 22.4 1 31.9 5.5 51.8 1.3 5.4 1.8 9.7 1.3 10.2-.5.4-11.2 4.3-23.9 8.5-23.5 7.8-46.4 15.8-50 17.5-1.1.5-5.8 2.1-10.5 3.5-4.7 1.5-10.1 3.2-12 4-1.9.7-13.6 4.3-26 8s-30.4 9-40 11.9-20.4 6.1-24 7.1c-18.3 4.9-30.8 8.7-59.5 18-14.3 4.7-30.2 9.8-35.3 11.5-5.2 1.6-10.2 3-11.1 3-1.5 0-1.9-1.9-3-13.3-.7-7.2-1.3-16.1-1.4-19.6l-.2-6.4 7.5-5.3c4.1-2.9 8-5.3 8.7-5.3.6-.1 5.5-4.4 10.9-9.5 5.3-5.2 11-10 12.6-10.7 2.1-.8 4.6-.9 9.9-.1 7.4 1.1 14 .4 22.9-2.4 5.7-1.8 7.1-1.8 10.6.1 1.6.8 4.7 1.5 6.9 1.4s5.7.6 7.8 1.5c2.4 1.1 7.8 1.8 15 2.2 6.1.3 12.9 1 14.9 1.6 2.9.8 5.8.7 13-.5 5.1-.9 14.3-1.8 20.3-2 6.1-.2 11.9-.8 13-1.4s5.6-2.8 10-4.8c15.7-7.3 37.3-29 53.8-54.1 1.5-2.1 4.6-6.4 6.9-9.6 2.4-3.1 5.7-7.9 7.3-10.7 1.7-2.8 3.3-5.1 3.7-5.1s.9-.9 1.3-2c.3-1.1 2.2-4.2 4.1-6.9 1.9-2.8 3.4-5.5 3.4-6s.4-1.1.8-1.3c.9-.3 6.4-9.5 10.8-17.8 1.6-3 3.1-5.7 3.4-6s3.1-5.7 6.4-12c6.6-13 9.6-18.3 10.2-17.7.3.2-.4 6-1.5 12.8m-303.2-1 .1 5.5-5.2 1.3c-2.9.8-5.9 1.8-6.6 2.4-2.3 1.8-2.6-.3-.5-4.6 1.1-2.3 4-6.7 6.4-9.7 4.2-5.3 4.3-5.4 5-3 .4 1.4.7 5 .8 8.1m59.4-6.4c.7 1.1-4.6 14-6.3 15.8-.8.8-5.8 3.6-11 6.3-10 5.2-15.5 8.2-20.5 11.1-7.4 4.4-14.7 8.2-15 7.9-.3-.4-.9-20.2-.7-23.9.2-2.5.9-2.8 12-5.9 15.2-4.2 18.3-5.1 20.7-6 3.8-1.5 18-5.9 19.2-5.9.6-.1 1.4.2 1.6.6m-59.1 21.8c.4 2.2.7 8.3.7 13.5l.1 9.5-4.7 2.5c-2.7 1.4-5 2.7-5.3 3s-2.2 1.4-4.2 2.5c-2.1 1.1-3.8 2.3-3.8 2.7 0 .5-.4.8-.9.8s-3.7 1.6-7.1 3.5-6.4 3.5-6.6 3.5c-2.2 0 4.4-23.5 9.4-33.9 3.2-6.5 5.8-8.5 13.2-10.5 7.5-2 8.3-1.8 9.2 2.9m48.3 7.7c-1.2 3.5-2.7 7.6-3.4 9.3-.7 1.6-2.3 5.9-3.7 9.5s-3.1 7.8-3.9 9.5c-.7 1.6-3.4 7.9-6 14-10.8 25.2-23.8 49.9-25.9 49.2-1.2-.4-1.2-23.8 0-57.4l.6-17.2 4.2-2.2c2.2-1.1 4.3-2.4 4.6-2.8.3-.3 2.5-1.6 5-2.8s7-3.6 10-5.3c15.3-8.7 16.3-9.2 20.2-9.9.3 0-.4 2.7-1.7 6.1m-75.8-2c-.3 1.3-2.2 7.1-4.2 13.1l-3.7 10.7-3.4-4.7c-1.8-2.6-5.4-6.8-7.9-9.4l-4.5-4.7 2.7-1c6.3-2.5 17.9-6.2 19.7-6.2 1.4 0 1.7.5 1.3 2.2m-25.5 10.5c.9.8 1.4 2.2 1.1 3-.5 1.2-.1 1.4 1.4.9 4.1-1.3 11.3 11.8 11.3 20.4 0 4.5-.3 5-4.2 7.9-2.4 1.7-4.7 3.4-5.3 3.8-2.8 2.2-6.6 4.3-7.9 4.3-1.8 0-15-13.5-18.1-18.6-3.8-6.1-3.3-15.7 1-20 1.6-1.7 13.5-4.4 16.5-3.8 1.4.3 3.3 1.2 4.2 2.1m53.3 32c-.7 22.1-1.4 44.6-1.5 45.1 0 .5-11.1-5.7-13-7.3-.8-.7-4.3-2.8-7.8-4.6-10.5-5.6-10.2-4.9-10.2-20.8v-13.9l7.3-4.1c10.3-5.8 16.7-9.5 20.7-11.9 1.9-1.2 3.9-2.2 4.3-2.2s.5 8.9.2 19.7m-40.9 8c-.3 1.6-.7 4.9-.8 7.5-.1 2.7-.6 4.8-1.1 4.8-1.6 0-9.6-6.4-9.7-7.6 0-1.2 3.2-3.6 8-6.1 3.6-1.9 4.2-1.6 3.6 1.4m-12.6 9.5c1.4 1.3 4.6 3.9 7.2 5.8 3.4 2.5 4.6 4.1 4.3 5.5-2.4 12.3-4.9 52.9-3.4 55.7.5.9.9 2.5.9 3.6s.7 2.6 1.6 3.3c1.4 1.2 1.9 1 3.9-1.5l2.2-2.8.7 2.6c.3 1.4 2 4.9 3.7 7.8l3.1 5.2-7.9 7.5c-10.6 10.3-19.5 17-28.3 21.6-7.9 4.1-21.3 3.3-31.4-1.7-7.2-3.7-15.6-14.2-15.6-19.5 0-1.1.7-4.1 1.6-6.6 1.9-5.7 6.8-9.9 17.4-15.3 9.8-4.9 19.4-7.4 30.8-8.1 5.1-.3 9-.8 8.8-1.1-1.5-1.5-10.5-2.1-17.4-1.1-17 2.3-36.3 11.4-42.4 19.9-4 5.5-4.8 13.4-1.9 19.3 4.4 9.1 16.8 19.7 22.9 19.7 1.2 0 2.4.5 2.8 1.2 1.1 1.7-17.7.2-25.6-2.1-8.9-2.5-13.8-5.3-18.6-10.3-6.5-6.8-7.8-13.1-4.9-24.3 1.6-6 6.6-17.4 9-20.4.8-.9 4.7-6.1 8.8-11.6 9.7-13.2 31.4-34.1 41.6-40.1 1.7-1 3.1-2.1 3.1-2.5s.8-.9 1.8-1.3c.9-.3 4.9-2.8 8.7-5.5 3.9-2.8 7.7-5 8.5-5 .8-.1 2.6.9 4 2.1m40.5 26.3c6.1 3.7 11.1 6.8 11.2 6.9 0 .1.4 3.5.8 7.7.6 7.1.5 7.7-1.9 10.6-1.4 1.7-2.6 3.4-2.6 3.8 0 .9-5.7 8.1-11 14-2.6 2.7-5.5 6.5-6.5 8.2-1.1 1.8-2.2 3.3-2.5 3.3-1.6 0-5.5-8.1-7.2-14.8-2.1-9-2.4-22-.8-37.9 1.5-14.3 1.2-13.8 5.7-11 2.1 1.3 8.8 5.4 14.8 9.2m31.8 25.7c-.2.5.2 2 1.1 3.3 1.9 2.9 2.1 11.1.3 15.1-2.2 5.1-5.9 9.8-9.7 12.5l-3.7 2.7-1.1-13.2c-1.7-19-1.6-23.2 1-27.7l2.1-3.8 5.3 5.2c2.9 2.8 5 5.5 4.7 5.9m290.7-5.5c2.8 7.6 7.5 17.8 8.2 18.1.5.2.8.9.8 1.5 0 2.8 23.8 36.8 31.6 45.2 1.1 1.1 4.8 5.3 8.4 9.4s10.5 11.4 15.5 16.2c4.9 4.8 8.7 9 8.4 9.3-.2.3-2.3.1-4.4-.4-9.5-2.1-44.5-7.5-55-8.5-3.3-.3-14.5-1.4-25-2.5-24.5-2.5-38.9-3.6-78-5.6-27.7-1.4-37.4-1.5-72-.5-38.5 1.2-85 4-98.5 6.1-3.6.5-12.1 1.7-19 2.5s-14.2 1.8-16.3 2.1c-3.1.5-3.6.3-3.1-1 .4-1 6-3.3 15.3-6.2 14.1-4.4 32-10.2 46.6-14.9 10.2-3.3 21.9-6.8 40-12 50-14.4 99.7-29.8 116.5-36.2 8.5-3.3 35.1-12.7 46.5-16.5 5-1.6 9.9-3.4 11-3.9 4-1.9 19-6.8 20-6.5.5.1 1.7 2.1 2.5 4.3m-308.4 29.9.7 12.1-4.7 1.3c-5.2 1.4-9.8 1-15.1-1.6-3.8-1.8-5.5-4.1-3.9-5.3.5-.3 2.5-2.5 4.3-4.9 1.8-2.3 4.5-5.5 6-7 3.6-3.8 8.4-10 9.6-12.5.9-1.9 1.1-1.7 1.7 1.9.4 2.1 1.1 9.3 1.4 16M224.5 298c1.3 2.1 8.5 5 12.4 5 4.7 0 6 1.3 2.8 2.7-1.6.7-2.9.8-4.1.1-1.5-.9-1.7-.7-1.2.9.5 1.5-.1 2.3-2.1 3.3-1.6.7-4.4 2.1-6.3 3-10 5.1-29.7 11.9-34.5 12-1.1 0 1.3-2.1 6-5.3 4.4-2.8 11.8-9.1 16.5-13.8 9-9.1 9.5-9.5 10.5-7.9m29.2 18.6c.6 6.5 1.2 13.2 1.2 14.8.1 2.8 0 2.8-1.8 1.2-2.1-1.9-13.1-20-13.1-21.6 0-1.2 10.1-7.1 11.5-6.7.6.2 1.5 5.7 2.2 12.3m4.3 31.3c0 .4-2.1 1.1-4.6 1.5-7 .9-8.4.6-3.9-.9 4.8-1.5 8.5-1.8 8.5-.6"/><path d="M263 257.8c0 .5.7 1.5 1.5 2.2s1.5.8 1.5.2c0-.5-.7-1.5-1.5-2.2s-1.5-.8-1.5-.2m318.2-41c-1.5 1-.5 4.5 1.2 3.9 1.3-.4 2.1-4.7.9-4.7-.4 0-1.4.4-2.1.8m39.4 27.9c-1.3 1.3-.5 5.4 1.4 7.3 1.1 1.1 2 2.7 2 3.5s.7 1.5 1.5 1.5c1.2 0 1.4-.9.9-4.3-.3-2.3-.7-4.7-.9-5.4-.5-1.5-4-3.4-4.9-2.6"/></svg>